<?xml version="1.0" encoding="utf-8"?>
<!-- Generator: Adobe Illustrator 25.2.1, SVG Export Plug-In . SVG Version: 6.00 Build 0)  -->
<svg version="1.1" id="Layer_1" xmlns="http://www.w3.org/2000/svg" xmlns:xlink="http://www.w3.org/1999/xlink" x="0px" y="0px"
	 viewBox="0 0 425 175" style="enable-background:new 0 0 425 175;" xml:space="preserve">
<g>
	<path d="M60.83,143.97c10.75-9.55,19.9-17.71,27.66-24.88c7.76-7.16,13.73-12.54,18.11-16.52c4.38-3.98,8.36-7.56,11.54-10.35
		c3.18-2.79,5.57-4.18,6.37-4.18c1.79,0,3.58,1.79,5.17,5.57s2.39,6.77,2.39,8.96c0,1.39-2.39,4.98-7.36,10.35
		c-4.98,5.37-8.56,9.95-11.15,13.14s-3.58,6.77-3.58,10.35c0,2.19,0.8,3.78,2.19,4.98c1.39,1.19,2.99,1.99,4.98,1.99
		c2.19,0,4.98-1.19,8.16-3.58s8.16-6.57,14.93-12.54v8.36c-6.77,6.37-12.94,11.94-18.51,16.52c-5.57,4.58-10.35,8.16-14.33,10.35
		c-3.98,2.19-7.56,3.38-10.15,3.38c-2.39,0-4.38-1-5.97-2.79c-1.59-1.79-2.39-4.18-2.39-6.77c0-2.59,0.4-5.37,1.39-7.96
		c1-2.59,2.39-5.97,4.38-9.75c1.99-3.78,4.58-8.16,7.76-13.53c3.18-5.37,6.17-9.95,8.76-14.33c-7.96,6.37-14.93,12.74-21.1,18.71
		c-6.17,5.97-11.15,11.15-15.13,15.72s-6.97,7.96-9.16,10.55c-4.38,4.78-8.36,7.16-12.14,7.16c-3.98,0-5.97-2.79-5.97-8.56
		c0-2.39,1.59-6.57,4.58-12.54s7.36-13.73,12.94-23.09c0.4-0.6,0.8-1.59,0.8-2.99c0-1.59-0.8-2.39-2.39-2.39
		c-1.79,0-4.18,1.59-7.36,4.78s-9.55,9.95-18.71,20.3c-2.59,2.79-5.37,6.57-8.76,11.34c-3.38,4.78-5.57,7.76-6.97,9.35
		c-1.39,1.59-2.79,2.39-4.18,2.39c-2.79,0-5.37-2.39-7.76-7.56S6.3,143.17,6.3,136.61c0-4.78,0.8-8.96,2.39-12.54
		s3.98-7.76,7.36-13.14c5.17-7.56,9.55-12.94,12.74-16.12c3.18-3.18,6.77-4.78,10.35-4.78c2.19,0,4.18,0.4,5.77,1.39
		c1.59,1,2.39,2.19,2.39,3.58c0,1.59-1.39,4.38-4.18,7.96c-2.79,3.58-6.37,7.56-10.75,11.54c-2.39,2.19-4.58,4.98-6.57,8.36
		s-3.18,5.77-3.18,7.16c0,2.19,0.8,3.18,2.39,3.18c1.39,0,4.58-2.79,9.95-8.16s11.34-11.34,17.71-17.71s12.34-11.74,17.91-15.92
		c5.57-4.18,10.15-6.37,13.93-6.37c2.39,0,4.18,0.8,5.77,2.59s2.19,3.98,2.19,6.57c0,1.79-1.19,4.78-3.58,9.35
		c-2.39,4.58-5.77,9.95-10.15,16.52C74.36,126.65,67.79,134.61,60.83,143.97z"/>
</g>
<g>
	<path d="M214.27,11.02c16.92,0,30.65,3.18,40.4,10.35c9.35,6.97,15.72,18.11,15.72,33.83c0,34.83-29.85,48.96-52.54,48.96
		c-2.59,0-4.98-0.2-6.37-0.4l-16.52-4.38v37.22c0,20.1,1.59,20.5,23.68,22.89v6.77h-65.88v-6.77c20.5-2.19,21.49-3.58,21.49-23.48
		V41.28c0-21.3-2.59-21.69-21.49-23.68v-6.77h61.5V11.02z M194.97,91.03c2.79,1.39,9.35,3.18,17.51,3.18
		c15.92,0,35.82-8.16,35.82-38.21c0-26.27-17.12-36.82-37.22-36.82c-6.97,0-11.94,1.19-13.33,2.79c-1.99,1.59-2.59,4.58-2.59,10.95
		v58.11H194.97z"/>
	<path d="M360.15,166.26v-6.77c15.52-1.99,17.51-4.38,14.13-13.33c-3.18-9.35-7.96-21.3-12.94-36.22H309.8
		c-3.78,10.75-7.36,20.1-10.75,29.85c-5.17,15.52-1.99,17.51,17.71,19.9v6.77h-55.13v-6.77c15.13-1.99,18.91-3.58,27.27-25.08
		L338.26,9.23l7.56-1.39c15.13,40.8,31.45,85.98,46.57,127.17c7.56,20.7,9.75,22.69,26.67,24.68v6.77h-58.91V166.26z M336.27,38.89
		c-7.56,20.5-15.72,42.19-22.89,61.1h44.58L336.27,38.89z"/>
</g>
</svg>
