<?xml version="1.0" encoding="utf-8"?>
<!-- Generator: Adobe Illustrator 25.2.1, SVG Export Plug-In . SVG Version: 6.00 Build 0)  -->
<svg version="1.1" id="Layer_1" xmlns="http://www.w3.org/2000/svg" xmlns:xlink="http://www.w3.org/1999/xlink" x="0px" y="0px"
	 viewBox="0 0 425 425" style="enable-background:new 0 0 425 425;" xml:space="preserve">
<path d="M172.75,322.7c-13.42,0-26.93-1.82-40.22-5.5c-38.56-10.68-70.66-35.74-90.38-70.56s-24.69-75.24-14.01-113.8l0,0
	c10.68-38.56,35.74-70.66,70.56-90.38s75.24-24.69,113.8-14.01c38.56,10.68,70.66,35.74,90.38,70.56s24.69,75.24,14.01,113.8
	c-10.68,38.56-35.74,70.66-70.56,90.38C223.52,316.11,198.28,322.7,172.75,322.7z M79.42,147.04c-6.89,24.87-3.68,50.93,9.04,73.39
	c12.71,22.46,33.41,38.62,58.28,45.5c24.87,6.89,50.93,3.68,73.39-9.04s38.62-33.41,45.5-58.28c6.89-24.87,3.68-50.93-9.04-73.39
	c-12.72-22.46-33.41-38.62-58.28-45.5c-24.87-6.89-50.93-3.68-73.39,9.04C102.46,101.47,86.3,122.17,79.42,147.04L79.42,147.04z"/>
<path d="M375.33,402.17c-6.81,0-13.62-2.6-18.81-7.79L241.98,279.84c-10.39-10.39-10.39-27.23,0-37.62
	c10.39-10.39,27.23-10.39,37.62,0l114.54,114.54c10.39,10.39,10.39,27.23,0,37.62C388.95,399.57,382.14,402.17,375.33,402.17z"/>
</svg>
